<svg width="202" height="198" viewBox="0 0 202 198" fill="none" xmlns="http://www.w3.org/2000/svg">
<path d="M65.1653 16.0567C65.1653 16.0567 56.8321 8.73905 48.7509 13.6343C38.9526 19.5722 42.158 28.8666 38.0999 34.1106C34.2434 39.0912 12.1121 34.2928 1.0929 71.7611C0.480513 73.9587 3.03473 77.509 4.67811 79.6989C5.51917 80.8229 5.94165 82.2027 5.87576 83.6019L4.69748 108.171C4.78663 109.904 5.78273 111.481 7.34084 112.249C9.80591 113.458 13.2128 116.101 13.2128 121.438C13.2128 129.795 5.59282 129.52 5.59282 142.376C5.59282 155.232 28.4567 170.934 37.0922 175.069C45.7238 179.201 44.8052 191.325 62.2545 195.731C77.5216 199.588 84.3238 189.976 82.5525 189.743C82.006 189.67 78.5177 188.786 78.5177 188.786C78.5177 188.786 142.416 205.51 152.609 180.05C154.129 176.255 157.667 173.678 161.71 173.073C172.504 171.453 178.117 164.263 180.992 134.574C181.388 130.233 182.799 126.636 194.221 119.117C199.678 115.524 202.244 108.807 200.415 102.536C197.977 94.1909 190.899 79.7997 172.334 53.6839C168.272 47.5794 174.884 47.7499 176.919 47.9166C178.954 48.0832 182.686 46.0523 178.783 35.0292C174.884 24.0062 133.61 -10.59 131.265 5.85926C130.28 11.456 125.571 8.57238 125.571 8.57238C125.571 8.57238 89.4594 -10.8381 73.4442 12.4948C75.7193 12.9715 76.5914 13.6886 76.5914 13.6886C76.5914 13.6886 75.2116 12.801 73.4442 12.4948C68.8861 11.7041 65.1692 16.0529 65.1692 16.0529L65.1653 16.0567Z" fill="#8B5CF6"/>
<path d="M73.4442 12.4948C89.4594 -10.8381 125.571 8.57238 125.571 8.57238C125.571 8.57238 130.28 11.456 131.265 5.85926C133.61 -10.59 174.884 24.0062 178.783 35.0292C182.686 46.0523 178.954 48.0832 176.919 47.9166C174.884 47.7499 168.272 47.5794 172.334 53.6839C190.899 79.7997 197.977 94.1909 200.415 102.536C202.244 108.807 199.678 115.524 194.221 119.117C182.799 126.636 181.388 130.233 180.992 134.574C178.117 164.263 172.504 171.453 161.71 173.073C157.667 173.678 154.129 176.255 152.609 180.05C142.416 205.51 78.5177 188.786 78.5177 188.786C78.5177 188.786 82.006 189.67 82.5525 189.743C84.3238 189.976 77.5216 199.588 62.2545 195.731C44.8052 191.325 45.7238 179.201 37.0922 175.069C28.4567 170.934 5.59282 155.232 5.59282 142.376C5.59282 129.52 13.2128 129.795 13.2128 121.438C13.2128 116.101 9.80591 113.458 7.34084 112.249C5.78273 111.481 4.78663 109.904 4.69748 108.171L5.87576 83.6019C5.94165 82.2027 5.51917 80.8229 4.67811 79.6989C3.03473 77.509 0.480513 73.9587 1.0929 71.7611C12.1121 34.2928 34.2434 39.0912 38.0999 34.1106C42.158 28.8666 38.9526 19.5722 48.7509 13.6343C56.8321 8.73905 65.1653 16.0567 65.1653 16.0567L65.1692 16.0529C65.1692 16.0529 68.8861 11.7041 73.4442 12.4948ZM73.4442 12.4948C75.7193 12.9715 76.5914 13.6886 76.5914 13.6886C76.5914 13.6886 75.2116 12.801 73.4442 12.4948Z" stroke="#8B5CF6" stroke-miterlimit="10"/>
<path d="M65.6925 11.551C66.7178 11.551 67.549 10.7198 67.549 9.69444C67.549 8.6691 66.7178 7.83789 65.6925 7.83789C64.6671 7.83789 63.8359 8.6691 63.8359 9.69444C63.8359 10.7198 64.6671 11.551 65.6925 11.551Z" fill="#8B5CF6"/>
<path d="M29.17 179.08C30.1954 179.08 31.0266 178.249 31.0266 177.224C31.0266 176.198 30.1954 175.367 29.17 175.367C28.1447 175.367 27.3135 176.198 27.3135 177.224C27.3135 178.249 28.1447 179.08 29.17 179.08Z" fill="#8B5CF6"/>
<path d="M161.968 186.863C164.61 186.863 166.751 184.721 166.751 182.08C166.751 179.438 164.61 177.297 161.968 177.297C159.327 177.297 157.186 179.438 157.186 182.08C157.186 184.721 159.327 186.863 161.968 186.863Z" fill="#8B5CF6"/>
<path d="M7.12669 125.775C9.38048 125.575 11.0187 123.28 10.7857 120.649C10.5527 118.018 8.5368 116.047 6.283 116.246C4.02921 116.446 2.39101 118.74 2.62399 121.372C2.85697 124.003 4.87289 125.974 7.12669 125.775Z" fill="#8B5CF6"/>
<path d="M171.066 177.825C172.217 177.825 173.151 176.891 173.151 175.74C173.151 174.588 172.217 173.654 171.066 173.654C169.914 173.654 168.98 174.588 168.98 175.74C168.98 176.891 169.914 177.825 171.066 177.825Z" fill="#8B5CF6"/>
<path d="M39.0057 183.267C40.1379 182.135 39.8532 180.014 38.3699 178.531C36.8865 177.048 34.7662 176.763 33.634 177.895C32.5018 179.027 32.7865 181.148 34.2698 182.631C35.7532 184.115 37.8735 184.399 39.0057 183.267Z" fill="#8B5CF6"/>
<path d="M186.798 63.2929C187.851 63.2929 188.704 62.1754 188.704 60.7969C188.704 59.4183 187.851 58.3008 186.798 58.3008C185.744 58.3008 184.891 59.4183 184.891 60.7969C184.891 62.1754 185.744 63.2929 186.798 63.2929Z" fill="#8B5CF6"/>
<path d="M182.171 58.4852C184.276 58.4852 185.981 56.7794 185.981 54.6752C185.981 52.571 184.276 50.8652 182.171 50.8652C180.067 50.8652 178.361 52.571 178.361 54.6752C178.361 56.7794 180.067 58.4852 182.171 58.4852Z" fill="#8B5CF6"/>
<path d="M57.4516 8.62196C59.5558 8.62196 61.2616 6.91616 61.2616 4.81196C61.2616 2.70775 59.5558 1.00195 57.4516 1.00195C55.3474 1.00195 53.6416 2.70775 53.6416 4.81196C53.6416 6.91616 55.3474 8.62196 57.4516 8.62196Z" fill="#8B5CF6"/>
<path d="M164.801 113.994C164.677 111.602 164.984 107.85 168.941 102.982C171.495 99.8428 171.999 95.6258 170.263 91.9708C168.553 88.3779 164.879 86.0524 160.902 86.0524C160.774 86.0524 160.646 86.0524 160.519 86.0601C159.511 86.095 158.677 86.1299 157.937 86.1648C158.03 85.5252 158.065 84.8741 158.038 84.2074C157.957 82.2656 158.05 78.5758 158.96 72.0177C159.282 69.7038 159.957 67.2388 160.674 64.7039C160.736 64.483 160.957 63.9792 161.135 63.5799C162.05 61.4986 164.476 55.9716 160.515 50.7197C160.484 50.6771 160.449 50.6306 160.414 50.5879C156.232 45.2586 150.933 40.4176 149.91 39.499C148.213 37.9758 146.027 37.1386 143.751 37.1386C143.593 37.1386 143.437 37.1386 143.282 37.1502C143.046 36.7006 142.802 36.2394 142.554 35.7626C141.24 33.2472 139.255 31.9333 138.604 31.4992C136.05 29.8054 130.508 27.069 128.24 26.1814C127.12 25.7435 125.942 25.5187 124.744 25.5187C123.26 25.5187 121.833 25.8597 120.546 26.4876C117.791 23.0148 114.434 21.887 112.345 21.5265C109.062 20.9606 106.647 20.6777 105.144 20.6777C102.527 20.6815 100.043 21.7513 98.2601 23.6195C96.0159 21.7087 93.5664 20.6699 90.6982 20.6699C90.4346 20.6699 90.1672 20.6816 89.9036 20.7009C89.737 20.7126 89.5703 20.7319 89.4037 20.7552L88.9696 20.8133C86.4851 21.1389 81.3224 21.8172 74.4815 24.0187C69.718 25.5497 65.9739 29.1155 64.2142 33.7976C64.1367 34.0069 64.0669 34.22 63.9972 34.4332C62.7375 34.1115 61.5592 33.9952 60.5321 33.9952C58.9663 33.9952 57.3927 34.2588 55.8539 34.782C48.8734 37.1541 44.2456 41.5804 40.9976 45.1694C36.8504 49.7507 29.2886 59.08 25.2344 70.1341C19.157 86.7035 18.8702 97.5638 24.3042 105.347C24.5406 105.688 24.7886 106.013 25.0445 106.331C24.5406 106.757 24.0716 107.234 23.653 107.765C21.7848 110.137 21.1182 113.18 21.8236 116.118C25.4398 131.164 31.8311 142.671 43.1914 154.594C43.2418 154.644 43.2922 154.698 43.3425 154.749C63.2646 174.667 87.9928 177.116 97.7019 177.248H97.919C101.427 177.248 104.83 176.085 107.609 174.004C109.43 174.973 111.504 175.523 113.698 175.523C114.713 175.523 115.733 175.403 116.725 175.167C121.717 173.977 125.174 172.655 128.566 171.291C130.492 170.52 132.112 169.248 133.321 167.671C135.271 167.613 137.178 167.047 138.856 166.02C142.573 163.741 145.779 161.446 149.255 158.574C152.116 156.21 153.492 152.582 154.395 148.222C154.441 148.222 154.492 148.222 154.538 148.222C157.751 148.222 160.774 146.652 162.623 144.02C165.584 139.811 169.29 132.947 170.251 130.548C172.956 123.796 168.185 118.056 165.03 114.257C164.956 114.168 164.879 114.075 164.801 113.982V113.994Z" fill="#09090B"/>
<path d="M100.767 147.605C102.868 150.698 104.697 155.031 105.135 160.504C105.476 164.756 102.081 168.403 97.8177 168.345C84.4148 168.167 64.8454 163.655 49.6442 148.458C40.0436 138.384 33.9313 128.361 30.4895 114.047C30.3229 113.358 30.9973 112.765 31.6639 113.013C37.0165 115.013 45.5435 117.028 53.1402 117.024C54.8263 117.024 56.2797 118.23 56.5588 119.892C58.4231 131.016 65.6245 146.686 66.2253 146.965C71.1825 149.086 80.7947 144.652 88.3217 142.849C93.0581 141.717 98.027 143.578 100.767 147.605Z" fill="#F9FAFB"/>
<path d="M104.275 109.207C119.24 123.013 125.961 142.536 126.728 160.721C126.771 161.729 126.178 162.652 125.244 163.028C122.101 164.291 119.089 165.446 114.655 166.504C112.198 167.09 109.787 165.341 109.636 162.822C108.198 138.749 95.9189 126.811 84.7834 115.645C83.8455 114.703 84.2912 113.098 85.5819 112.781C90.3686 111.606 96.8995 109.575 100.349 108.393C101.706 107.928 103.217 108.234 104.271 109.207H104.275Z" fill="#F9FAFB"/>
<path d="M161.976 127.244C161.305 128.923 157.902 135.244 155.332 138.903C154.871 139.558 153.852 139.407 153.615 138.643C152.422 134.826 149.553 130.911 148.662 131.392C146.732 132.43 146.65 149.17 143.577 151.709C140.503 154.248 137.658 156.306 134.201 158.426C132.457 159.496 130.263 157.957 130.531 155.934C131.511 148.601 131.108 136.081 131.108 130.376C131.108 128.857 130.496 127.411 129.422 126.334C125.562 122.454 116.004 114.865 110.895 108.245C109.895 106.946 110.484 105.047 112.05 104.559C115.632 103.443 118.845 102.489 122.445 101.419C124.279 100.873 126.263 101.439 127.538 102.869C131.639 107.485 137.503 113.977 140.608 116.842C141.48 117.644 142.891 117.214 143.162 116.062C144.119 112.043 146.379 103.21 147.468 98.9194C147.918 97.1481 149.426 95.8419 151.247 95.6637C155.623 95.2373 156.456 95.1365 160.844 94.9737C162.1 94.9272 162.817 96.3846 162.022 97.3613C154.092 107.113 156.08 115.02 156.077 116.915C156.073 118.349 163.127 124.365 161.972 127.248L161.976 127.244Z" fill="#F9FAFB"/>
<path d="M58.7235 43.2298C68.3474 39.9586 72.1302 63.1829 73.4791 70.082C76.5643 85.8685 82.5525 105.853 61.7545 106.523C36.5302 107.337 21.5731 106.015 33.6039 73.2099C36.503 65.3108 42.0301 57.3148 47.6036 51.156C50.1733 48.3189 53.5957 44.9662 58.7197 43.226L58.7235 43.2298ZM53.7353 92.7095L55.6693 85.6127C55.9213 84.8608 56.4213 84.2135 57.0879 83.7794L62.1188 80.7407C62.6072 80.4229 62.6227 79.7136 62.1498 79.3764L56.991 75.923C56.3864 75.485 55.9329 74.8688 55.7042 74.1556L53.7469 67.396C53.5027 66.6441 52.4407 66.6325 52.1771 67.3766L50.0299 74.2447C49.7857 74.9385 49.3322 75.5354 48.7315 75.9579L43.6773 79.3842C43.2006 79.7175 43.2083 80.4268 43.6928 80.7524L48.7044 83.9771C49.3245 84.3918 49.7935 84.9887 50.0532 85.6864L52.1733 92.7327C52.4446 93.4653 53.4872 93.4498 53.7353 92.7095Z" fill="#F9FAFB"/>
<path d="M90.5946 29.5995C94.862 29.2701 103.265 48.5372 107.005 57.537C107.214 58.0447 107.974 57.8626 107.935 57.3122C107.23 47.3279 106.118 41.142 104.587 30.1964C104.54 29.8515 104.827 29.5957 105.176 29.5957C106.176 29.5957 108.59 29.929 110.85 30.3166C112.924 30.6732 114.11 32.4289 114.877 34.3863C118.71 44.1729 127.823 69.6181 129.427 86.455C129.598 88.2418 128.439 89.8852 126.702 90.3503C125.454 90.6836 123.141 91.4472 121.784 91.8658C119.02 92.7185 116.156 91.2689 114.253 89.0945C108.645 82.6877 105.974 79.1257 99.5169 73.6646C99.1177 73.3274 98.5286 73.7343 98.703 74.2266C100.323 78.7381 102.66 82.8039 104.145 92.7301C104.532 95.3269 102.986 97.8269 100.486 98.6253C97.9666 99.4276 95.4744 100.195 92.6489 100.99C88.2148 102.234 83.8157 98.9044 83.7808 94.2998C83.587 70.0445 80.3855 55.4401 73.1415 43.3435C70.6958 39.2621 72.688 33.9638 77.2189 32.5065C83.7188 30.4174 88.4358 29.8825 90.5985 29.5918L90.5946 29.5995Z" fill="#F9FAFB"/>
<path d="M133.679 38.932C134.07 39.1917 134.438 39.4824 134.656 39.8971C137.985 46.2613 143.02 55.5092 143.923 55.3503C144.357 55.2766 144.376 50.3814 143.423 46.49C143.345 46.176 143.717 45.9202 143.958 46.1373C145.849 47.8349 150.147 51.9472 153.403 56.0944C154.593 57.668 152.833 59.699 152.105 62.2687C151.306 65.0787 150.539 67.8965 150.136 70.7918C149.516 75.2413 148.965 80.5358 149.136 84.5861C149.171 85.4272 148.558 86.1636 147.721 86.2527C145.446 86.4969 140.38 87.2488 138.152 87.7643C137.047 88.0202 136.202 86.9582 136.551 85.8807C138.012 81.3497 139.969 74.6057 140.268 69.2686C140.512 64.8501 140.008 64.0478 138.578 61.9121C132.392 52.6643 128.78 45.6179 124.144 35.3855C123.896 34.839 124.435 34.2693 124.993 34.4902C126.884 35.2305 131.787 37.6839 133.679 38.9359V38.932Z" fill="#F9FAFB"/>
</svg>
